# xmcd CD database file
#
# Track frame offsets:
#	150
#	21225
#	38640
#	62140
#
# Disc length: 1107 seconds
#
# Revision: 0
# Processed by: cddbd v1.5PL3 Copyright (c) Steve Scherf et al.
# Submitted via: CDex 1.51
#
DISCID=2c045104
DTITLE=PaniCrew - レッツ ゴー・クレイジー！
DYEAR=1900
DGENRE=JPop
TTITLE0=レッツ ゴー・クレイジー！
TTITLE1=Rising Sun
TTITLE2=Beat's P.C 〜abstract〜
TTITLE3=レッツ ゴー・クレイジー！(Instrumental)
EXTD=
EXTT0=
EXTT1=
EXTT2=
EXTT3=
PLAYORDER=
